<svg width="47" height="35" viewBox="0 0 47 35" fill="none" xmlns="http://www.w3.org/2000/svg">
<path d="M2.50534 0.0118325C1.72612 0.135558 1.02834 0.561404 0.565513 1.19569C0.102681 1.82997 -0.0872929 2.62074 0.0373819 3.39402C0.162057 4.16731 0.591168 4.85977 1.23032 5.31908C1.86946 5.77839 2.66629 5.96692 3.44551 5.84319H12.2596L12.7885 7.30103L15.1977 14.5902L17.6069 21.8794C17.8419 22.6375 18.8408 23.3373 19.6047 23.3373H40.171C40.9937 23.3373 41.9339 22.6375 42.1689 21.8794L46.9285 7.30103C47.1636 6.54296 46.811 5.84319 45.9883 5.84319H19.8985L17.6656 1.64461C17.4278 1.16271 17.0606 0.755276 16.6044 0.467189C16.1482 0.179102 15.6208 0.0215331 15.0802 0.0118325L3.32799 0.0118325C3.15206 -0.00394417 2.97506 -0.00394417 2.79914 0.0118325C2.68172 0.00482857 2.56399 0.00482857 2.44658 0.0118325L2.50534 0.0118325ZM21.0738 29.1686C19.4285 29.1686 18.1357 30.4515 18.1357 32.0843C18.1357 33.7171 19.4285 35 21.0738 35C22.7191 35 24.0118 33.7171 24.0118 32.0843C24.0118 30.4515 22.7191 29.1686 21.0738 29.1686ZM38.702 29.1686C37.0567 29.1686 35.764 30.4515 35.764 32.0843C35.764 33.7171 37.0567 35 38.702 35C40.3473 35 41.64 33.7171 41.64 32.0843C41.64 30.4515 40.3473 29.1686 38.702 29.1686Z" fill="white"/>
</svg>
