<svg width="32" height="26" viewBox="0 0 32 26" fill="none" xmlns="http://www.w3.org/2000/svg">
<path d="M31.1774 2.99939C30.0303 3.50792 28.7978 3.85167 27.5038 4.00593C28.8242 3.21438 29.8388 1.96086 30.3158 0.468047C29.0801 1.20089 27.7107 1.73372 26.2544 2.01957C25.0879 0.77738 23.4254 0 21.5856 0C18.0534 0 15.1893 2.86335 15.1893 6.39637C15.1893 6.89722 15.2459 7.38591 15.3553 7.85436C10.0391 7.58755 5.32626 5.04082 2.1714 1.17052C1.62075 2.11552 1.30535 3.21479 1.30535 4.38652C1.30535 6.6057 2.43457 8.56291 4.15088 9.71036C3.10263 9.67675 2.11633 9.38888 1.25393 8.91031C1.25312 8.93703 1.25312 8.96334 1.25312 8.99088C1.25312 12.0891 3.45772 14.6742 6.38342 15.2625C5.84694 15.4079 5.28213 15.4864 4.69869 15.4864C4.28611 15.4864 3.88568 15.4468 3.49497 15.3719C4.30879 17.9125 6.67089 19.7624 9.46986 19.8143C7.28064 21.5294 4.52297 22.5525 1.52601 22.5525C1.00978 22.5525 0.500843 22.5225 0 22.463C2.83055 24.2777 6.19272 25.3361 9.8047 25.3361C21.5698 25.3361 28.0035 15.5901 28.0035 7.13853C28.0035 6.86159 27.997 6.58505 27.9848 6.31013C29.2355 5.40886 30.3202 4.28206 31.1774 2.99939Z" fill="#46A4BD"/>
</svg>
