<svg width="32" height="32" viewBox="0 0 32 32" fill="none" xmlns="http://www.w3.org/2000/svg">
<path d="M28.8681 0H2.3015C1.03102 0 0 1.00677 0 2.2465V28.9278C0 30.1693 1.03102 31.1774 2.3015 31.1774H28.8681C30.1394 31.1774 31.1774 30.1693 31.1774 28.9278V2.2465C31.1774 1.00677 30.1394 0 28.8681 0ZM9.24669 26.5674H4.62031V11.6893H9.24669V26.5674ZM6.9335 9.65502C5.45127 9.65502 4.25311 8.45383 4.25311 6.9729C4.25311 5.49414 5.45127 4.29295 6.9335 4.29295C8.41226 4.29295 9.61345 5.49414 9.61345 6.9729C9.61345 8.45383 8.41226 9.65502 6.9335 9.65502ZM26.5657 26.5674H21.9467V19.3326C21.9467 17.6065 21.9129 15.3873 19.543 15.3873C17.1363 15.3873 16.7695 17.2671 16.7695 19.2074V26.5679H12.147V11.6893H16.5833V13.7211H16.6465C17.264 12.5519 18.7727 11.3182 21.0226 11.3182C25.7018 11.3182 26.5661 14.3987 26.5661 18.4063L26.5657 26.5674Z" fill="#46A4BD"/>
</svg>
