<svg width="32" height="32" viewBox="0 0 32 32" fill="none" xmlns="http://www.w3.org/2000/svg">
<path d="M23.3661 13.7649C23.3661 18.06 19.8842 21.5419 15.5891 21.5419C11.294 21.5419 7.81209 18.06 7.81209 13.7649C7.81209 12.5546 8.09659 11.4136 8.58936 10.3926H0V28.5794C0 30.2465 1.36401 31.6105 3.03113 31.6105H28.1462C29.8133 31.6105 31.1774 30.2465 31.1774 28.5794V10.3926H22.5884C23.0816 11.4136 23.3661 12.5546 23.3661 13.7649Z" fill="#46A4BD"/>
<path d="M28.1462 0H3.03113C1.36401 0 0 1.36401 0 3.03113V9.0934H9.38135C10.8008 7.2102 13.049 5.98779 15.5887 5.98779C18.1283 5.98779 20.3766 7.2102 21.796 9.0934H31.1774V3.03113C31.1774 1.36401 29.8133 0 28.1462 0ZM2.49246 7.67136H1.36401V3.30004C1.36401 2.53533 1.82994 1.88017 2.49289 1.60174L2.49246 7.67136ZM4.34145 7.67136H3.27232V1.45841H4.34145V7.67136ZM6.19 7.67136H5.12088V1.45841H6.19V7.67136ZM8.03726 3.30004V5.82973V7.67136H6.96944V1.45841H8.03726V3.30004ZM29.5973 5.82973C29.5973 6.84733 28.7728 7.67136 27.7565 7.67136H24.7648C23.7481 7.67136 22.9236 6.84733 22.9236 5.82973V3.30004C22.9236 2.28244 23.7481 1.45841 24.7648 1.45841H27.7565C28.7732 1.45841 29.5973 2.28244 29.5973 3.30004V5.82973Z" fill="#46A4BD"/>
<path d="M15.5891 20.6324C19.372 20.6324 22.4386 17.5645 22.4386 13.7825C22.4386 10.0001 19.3724 6.93213 15.5891 6.93213C11.8054 6.93213 8.73877 10.0001 8.73877 13.7825C8.73877 17.564 11.8054 20.6324 15.5891 20.6324ZM15.5887 8.32472C18.6025 8.32472 21.0465 10.7682 21.0465 13.7825C21.0465 16.7963 18.6029 19.2403 15.5887 19.2403C12.5745 19.2403 10.1309 16.7967 10.1309 13.7825C10.1314 10.7678 12.5749 8.32472 15.5887 8.32472Z" fill="#46A4BD"/>
</svg>
