<svg width="32" height="32" viewBox="0 0 32 32" fill="none" xmlns="http://www.w3.org/2000/svg">
<path d="M29.4565 0H1.72082C0.770341 0 0 0.770341 0 1.72082V29.457C0 30.407 0.770341 31.1774 1.72082 31.1774H16.6526V19.1039H12.5896V14.3987H16.6526V10.9285C16.6526 6.90145 19.1122 4.70908 22.7045 4.70908C24.4253 4.70908 25.9041 4.83682 26.3353 4.89441V9.10292L23.8438 9.10422C21.89 9.10422 21.5119 10.0326 21.5119 11.3949V14.3992H26.1712L25.5646 19.1044H21.5119V31.1774H29.457C30.407 31.1774 31.1774 30.407 31.1774 29.4565V1.72082C31.1774 0.770341 30.407 0 29.4565 0Z" fill="#46A4BD"/>
</svg>
