<svg width="111" height="87" viewBox="0 0 111 87" fill="none" xmlns="http://www.w3.org/2000/svg">
<g id="&#240;&#159;&#166;&#134; icon &#34;day cloudy&#34;">
<path id="Vector" d="M0 65.8711C0 69.5787 0.906295 72.9979 2.71888 76.1287C4.53147 79.2596 7.00319 81.7313 10.134 83.5439C13.2649 85.3565 16.6429 86.2628 20.3092 86.2628H64.9237C68.59 86.2628 72.0092 85.3565 75.1401 83.5439C78.2709 81.7313 80.7838 79.2596 82.5964 76.1287C84.409 72.9979 85.3565 69.5787 85.3565 65.8711C85.3565 63.1523 84.7797 60.3922 83.6263 57.6321C86.7571 53.8421 88.3225 49.2695 88.3225 44.0377C88.3225 41.1128 87.7458 38.3116 86.6335 35.6339C85.5213 32.9562 83.9558 30.6904 82.0197 28.7543C80.0835 26.8181 77.8178 25.2527 75.1401 24.1404C72.4624 22.9869 69.6611 22.4514 66.7362 22.4514C60.6394 22.4514 55.3252 24.8407 50.7525 29.6194C47.5805 27.8068 43.8729 26.9005 39.6298 26.9005C33.8213 26.9005 28.7131 28.7131 24.264 32.297C19.8149 35.881 16.9312 40.4949 15.6954 46.0974C11.0815 47.1685 7.33275 49.5166 4.40789 53.2242C1.48303 56.9318 0 61.1337 0 65.8711ZM7.04438 65.8711C7.04438 62.4107 8.19785 59.4447 10.5048 56.9318C12.8117 54.4189 15.6954 52.977 19.1558 52.5651L21.2155 52.4415C21.7099 52.4415 21.9982 52.1943 21.9982 51.7L22.2866 49.4754C22.8633 45.0264 24.7995 41.2776 28.0951 38.3115C31.3908 35.3043 35.2631 33.8213 39.671 33.8213C44.2025 33.8213 48.1572 35.3455 51.494 38.3527C54.872 41.36 56.7258 45.0676 57.1378 49.5166L57.4261 51.906C57.5085 52.3591 57.7969 52.6063 58.2912 52.6063H64.9237C68.5488 52.6063 71.6797 53.9245 74.3162 56.561C76.9527 59.1975 78.2709 62.2872 78.2709 65.9123C78.2709 69.6611 76.9527 72.8331 74.3574 75.4696C71.7621 78.1061 68.59 79.4244 64.9649 79.4244H20.3092C16.6841 79.4244 13.5944 78.1061 10.9579 75.4284C8.36263 72.7507 7.04438 69.5787 7.04438 65.8711ZM34.6452 15.3246C34.6452 16.3133 34.9747 17.1784 35.6339 17.9199L38.3527 20.5564C39.3826 21.3391 40.2477 21.6687 40.9892 21.5863C41.8543 21.5863 42.5958 21.2155 43.255 20.5152C43.9141 19.8149 44.2437 18.9498 44.2437 17.9611C44.2437 16.9724 43.8729 16.1485 43.1726 15.5306L40.7421 12.8117C40.0005 12.1526 39.1766 11.823 38.2292 11.823C37.2405 11.823 36.3754 12.1526 35.6751 12.8529C34.9747 13.512 34.6452 14.3359 34.6452 15.3246ZM56.6434 33.5741C59.4859 30.814 62.8639 29.4546 66.7362 29.4546C70.8146 29.4546 74.275 30.8552 77.1174 33.6977C79.9599 36.5402 81.4017 39.9594 81.4017 44.0377C81.4017 46.5918 80.7014 49.1459 79.3008 51.6176C75.3048 47.6629 70.5262 45.6855 64.9237 45.6855H63.6054C62.5755 41.1952 60.2686 37.1581 56.6434 33.5741ZM63.3582 11.823C63.3582 12.8941 63.6878 13.718 64.3057 14.3771C64.9237 15.0363 65.7476 15.3246 66.7362 15.3246C67.8073 15.3246 68.6312 14.9951 69.2903 14.3771C69.9495 13.718 70.2378 12.8941 70.2378 11.823V3.37801C70.2378 2.38932 69.9083 1.60661 69.2492 0.94749C68.59 0.288366 67.7661 0 66.7362 0C65.7476 0 64.9649 0.329562 64.3057 0.94749C63.6466 1.56542 63.3582 2.38932 63.3582 3.37801V11.823ZM86.098 21.2567C86.098 22.3278 86.3864 23.1517 87.0043 23.8108C87.8694 24.47 88.7345 24.7995 89.5584 24.7995C90.2999 24.7995 91.1238 24.47 91.9889 23.8108L97.8798 17.9199C98.5389 17.1784 98.8685 16.3133 98.8685 15.2834C98.8685 14.2947 98.5389 13.4708 97.8798 12.8117C97.2207 12.1526 96.3968 11.823 95.4493 11.823C94.4606 11.823 93.6779 12.1526 93.06 12.8117L87.0043 18.7026C86.3864 19.4853 86.098 20.3092 86.098 21.2567ZM89.3524 70.0319C89.3524 71.0205 89.682 71.8857 90.3823 72.6272L93.06 75.2225C93.6779 75.8816 94.4606 76.2111 95.4493 76.2111C96.438 76.2111 97.2619 75.8816 97.921 75.1813C98.5801 74.4809 98.9097 73.657 98.9097 72.6272C98.9097 71.7209 98.5801 70.897 97.921 70.2378L95.2433 67.5601C94.5842 66.901 93.8015 66.5715 92.8952 66.5715C91.9065 66.5715 91.0826 66.901 90.4235 67.5601C89.7232 68.2193 89.3524 69.0432 89.3524 70.0319ZM95.4081 44.0377C95.4081 44.9852 95.7789 45.7679 96.4792 46.427C97.1383 47.0861 98.0034 47.4157 98.9921 47.4157H107.396C108.343 47.4157 109.126 47.0861 109.785 46.4682C110.444 45.8503 110.733 45.0264 110.733 44.0377C110.733 43.049 110.403 42.2251 109.785 41.566C109.167 40.9068 108.343 40.5361 107.396 40.5361H98.9921C98.0034 40.5361 97.1795 40.8657 96.4792 41.566C95.7377 42.2663 95.4081 43.0902 95.4081 44.0377Z" fill="#46A4BD"/>
</g>
</svg>
